# xmcd
#
# Track frame offsets:
#	150
#	15853
#	32565
#	48617
#	64812
#	85244
#	96939
#	110253
#	128731
#	144402
#	157616
#	173432
#	189489
#	203640
#	211368
#	224295
#	240129
#	248547
#	260558
#	274726
#	287652
#
# Disc length: 3963 seconds
#
# Revision: 2
# Processed by: cddbd v1.5.1PL2 Copyright (c) Steve Scherf et al.
# Submitted via: audiograbber 1.83.01
#
DISCID=130f7915
DTITLE=Artur Erikson - Strömmar av liv
DYEAR=1900
DGENRE=Other
TTITLE0=Psalmerna 3,29
TTITLE1=Här en källa rinner 3,42
TTITLE2=Den stunden i Getsemane 3,34
TTITLE3=Av bare nåde 3,35
TTITLE4=Det är en som har dött i stället för mig 4,32
TTITLE5=Underbart namn han bär 2,35
TTITLE6=Korset och kransen 2,57
TTITLE7=Bar du min börda 4,06
TTITLE8=Jag gick idag där Jesus gått 3,28
TTITLE9=Maria stod och grät utanför graven 2,56
TTITLE10=Dina händer är fulla med blommor 3,30
TTITLE11=Helig ande låt nu ske 3,34
TTITLE12=Lågorna är många 3,08
TTITLE13=Icke genom någon människa styrka 1,43
TTITLE14=Gjut din ande 2,52
TTITLE15=Jag har aldrig sett vinden 3,31
TTITLE16=Strömmar av liv 1,52
TTITLE17=Every tima I feel the spirit 2,40
TTITLE18=Andens frukter 3,08
TTITLE19=Som hjorten trängtar efter vatten 2,52
TTITLE20=O pingt, du sköna dag 2,08
EXTD=
EXTT0=
EXTT1=
EXTT2=
EXTT3=
EXTT4=
EXTT5=
EXTT6=
EXTT7=
EXTT8=
EXTT9=
EXTT10=
EXTT11=
EXTT12=
EXTT13=
EXTT14=
EXTT15=
EXTT16=
EXTT17=
EXTT18=
EXTT19=
EXTT20=
PLAYORDER=
